# xmcd
#
# Track frame offsets:
#	151
#	17780
#	35501
#	50170
#	61101
#	75442
#	96623
#	115058
#	132207
#	152340
#	170855
#	190242
#
# Disc length: 2856 seconds
#
# Revision: 0
# Processed by: cddbd v1.4PL0 Copyright (c) Steve Scherf et al.
# Submitted via: EasyCDDAExtractor 4.6.0.1
#
DISCID=9c0b260c
DTITLE=Gerry Brown - Songs From The Heart
DYEAR=2000
DGENRE=
TTITLE0=I Write The Songs
TTITLE1=Wind Beneath My Wings
TTITLE2=Longer
TTITLE3=Time in a Bottle
TTITLE4=Mary Did You Know
TTITLE5=Coming Home
TTITLE6=Together We Stand
TTITLE7=Never Leave These Shores
TTITLE8=Have I told You Lately
TTITLE9=You've Got a Friend
TTITLE10=Peace Song
TTITLE11=Butterfly Kisses
EXTD=
EXTT0=
EXTT1=
EXTT2=
EXTT3=
EXTT4=
EXTT5=
EXTT6=
EXTT7=
EXTT8=
EXTT9=
EXTT10=
EXTT11=
PLAYORDER=
